<mxfile host="Electron" modified="2023-09-18T20:36:09.397Z" agent="Mozilla/5.0 (Windows NT 10.0; Win64; x64) AppleWebKit/537.36 (KHTML, like Gecko) draw.io/21.7.5 Chrome/114.0.5735.289 Electron/25.8.1 Safari/537.36" etag="GRkrNshAEThohsIPyAcC" version="21.7.5" type="device">
  <diagram name="Page-1" id="1cgvPbLA0-LmnSp9czfP">
    <mxGraphModel dx="880" dy="532" grid="1" gridSize="10" guides="1" tooltips="1" connect="1" arrows="1" fold="1" page="1" pageScale="1" pageWidth="850" pageHeight="1100" math="0" shadow="0">
      <root>
        <mxCell id="0" />
        <mxCell id="1" parent="0" />
        <mxCell id="Wpam5QDeSYQ_RFP_dAcd-3" value="" style="edgeStyle=orthogonalEdgeStyle;rounded=0;orthogonalLoop=1;jettySize=auto;html=1;" edge="1" parent="1" source="Wpam5QDeSYQ_RFP_dAcd-1" target="Wpam5QDeSYQ_RFP_dAcd-2">
          <mxGeometry relative="1" as="geometry" />
        </mxCell>
        <mxCell id="Wpam5QDeSYQ_RFP_dAcd-1" value="&lt;font size=&quot;3&quot;&gt;Start&lt;/font&gt;" style="ellipse;whiteSpace=wrap;html=1;" vertex="1" parent="1">
          <mxGeometry x="280" y="40" width="160" height="80" as="geometry" />
        </mxCell>
        <mxCell id="Wpam5QDeSYQ_RFP_dAcd-5" value="" style="edgeStyle=orthogonalEdgeStyle;rounded=0;orthogonalLoop=1;jettySize=auto;html=1;" edge="1" parent="1" source="Wpam5QDeSYQ_RFP_dAcd-2" target="Wpam5QDeSYQ_RFP_dAcd-4">
          <mxGeometry relative="1" as="geometry" />
        </mxCell>
        <mxCell id="Wpam5QDeSYQ_RFP_dAcd-2" value="&lt;font size=&quot;3&quot;&gt;read the first base (a)&lt;/font&gt;" style="shape=parallelogram;perimeter=parallelogramPerimeter;whiteSpace=wrap;html=1;fixedSize=1;" vertex="1" parent="1">
          <mxGeometry x="260" y="210" width="200" height="60" as="geometry" />
        </mxCell>
        <mxCell id="Wpam5QDeSYQ_RFP_dAcd-7" value="" style="edgeStyle=orthogonalEdgeStyle;rounded=0;orthogonalLoop=1;jettySize=auto;html=1;" edge="1" parent="1" source="Wpam5QDeSYQ_RFP_dAcd-4" target="Wpam5QDeSYQ_RFP_dAcd-6">
          <mxGeometry relative="1" as="geometry" />
        </mxCell>
        <mxCell id="Wpam5QDeSYQ_RFP_dAcd-4" value="&lt;font size=&quot;3&quot;&gt;read the second base (b)&lt;/font&gt;" style="shape=parallelogram;perimeter=parallelogramPerimeter;whiteSpace=wrap;html=1;fixedSize=1;" vertex="1" parent="1">
          <mxGeometry x="260" y="340" width="200" height="60" as="geometry" />
        </mxCell>
        <mxCell id="Wpam5QDeSYQ_RFP_dAcd-9" value="" style="edgeStyle=orthogonalEdgeStyle;rounded=0;orthogonalLoop=1;jettySize=auto;html=1;" edge="1" parent="1" source="Wpam5QDeSYQ_RFP_dAcd-6" target="Wpam5QDeSYQ_RFP_dAcd-8">
          <mxGeometry relative="1" as="geometry" />
        </mxCell>
        <mxCell id="Wpam5QDeSYQ_RFP_dAcd-6" value="&lt;font size=&quot;3&quot;&gt;read the height (h)&lt;/font&gt;" style="shape=parallelogram;perimeter=parallelogramPerimeter;whiteSpace=wrap;html=1;fixedSize=1;" vertex="1" parent="1">
          <mxGeometry x="260" y="480" width="200" height="60" as="geometry" />
        </mxCell>
        <mxCell id="Wpam5QDeSYQ_RFP_dAcd-11" value="" style="edgeStyle=orthogonalEdgeStyle;rounded=0;orthogonalLoop=1;jettySize=auto;html=1;" edge="1" parent="1" source="Wpam5QDeSYQ_RFP_dAcd-8" target="Wpam5QDeSYQ_RFP_dAcd-10">
          <mxGeometry relative="1" as="geometry" />
        </mxCell>
        <mxCell id="Wpam5QDeSYQ_RFP_dAcd-8" value="&lt;font style=&quot;font-size: 14px;&quot;&gt;s = a + b&lt;/font&gt;" style="whiteSpace=wrap;html=1;" vertex="1" parent="1">
          <mxGeometry x="250" y="620" width="220" height="60" as="geometry" />
        </mxCell>
        <mxCell id="Wpam5QDeSYQ_RFP_dAcd-13" value="" style="edgeStyle=orthogonalEdgeStyle;rounded=0;orthogonalLoop=1;jettySize=auto;html=1;" edge="1" parent="1" source="Wpam5QDeSYQ_RFP_dAcd-10" target="Wpam5QDeSYQ_RFP_dAcd-12">
          <mxGeometry relative="1" as="geometry" />
        </mxCell>
        <mxCell id="Wpam5QDeSYQ_RFP_dAcd-10" value="&lt;font style=&quot;font-size: 14px;&quot;&gt;A = (s*h)/2&lt;/font&gt;" style="whiteSpace=wrap;html=1;" vertex="1" parent="1">
          <mxGeometry x="250" y="750" width="220" height="60" as="geometry" />
        </mxCell>
        <mxCell id="Wpam5QDeSYQ_RFP_dAcd-15" value="" style="edgeStyle=orthogonalEdgeStyle;rounded=0;orthogonalLoop=1;jettySize=auto;html=1;" edge="1" parent="1" source="Wpam5QDeSYQ_RFP_dAcd-12" target="Wpam5QDeSYQ_RFP_dAcd-14">
          <mxGeometry relative="1" as="geometry" />
        </mxCell>
        <mxCell id="Wpam5QDeSYQ_RFP_dAcd-12" value="&lt;font size=&quot;3&quot;&gt;display A&lt;/font&gt;" style="shape=parallelogram;perimeter=parallelogramPerimeter;whiteSpace=wrap;html=1;fixedSize=1;" vertex="1" parent="1">
          <mxGeometry x="260" y="880" width="200" height="60" as="geometry" />
        </mxCell>
        <mxCell id="Wpam5QDeSYQ_RFP_dAcd-14" value="&lt;font size=&quot;3&quot;&gt;End&lt;/font&gt;" style="ellipse;whiteSpace=wrap;html=1;" vertex="1" parent="1">
          <mxGeometry x="280" y="1010" width="160" height="80" as="geometry" />
        </mxCell>
      </root>
    </mxGraphModel>
  </diagram>
</mxfile>
